<svg xmlns="http://www.w3.org/2000/svg" version="1.1" xmlns:xlink="http://www.w3.org/1999/xlink" xmlns:svgjs="http://svgjs.dev/svgjs" width="100%" height="100%" viewBox="0 0 1000 600"><rect width="1000" height="600" x="0" y="0" fill="#ee4a30"/><g><circle r="166.66666666666666" cx="363.06664530436194" cy="385.2888081845726" fill="#12345689" transform="matrix(0.6364565165168558,0,0,0.6364565165168558,0,54.780429250337875)"/><path d="M374.48882574580773 460.2888170678712L311.554692092517 460.2888170678712Q310.6864285930187 460.2888170678712 310.6864285930187 458.1930086208063L310.6864285930187 458.1930086208063L310.6864285930187 456.9055834318951Q310.6864285930187 456.0672600530691 311.7642729372235 456.0672600530691Q312.81217716075594 456.0672600530691 314.8481053664761 455.43851751894965Q316.9139736928686 454.8097749848302 317.961877916401 454.60019414012373L317.961877916401 454.60019414012373Q328.7103812377766 452.1750443656629 328.7103812377766 442.38462490580275L328.7103812377766 442.38462490580275L328.7103812377766 331.24689697002003Q328.7103812377766 321.5462978721769 325.1175667570939 318.8816271323373Q321.55469239708367 316.1870162718253 312.1834346266364 316.1870162718253L312.1834346266364 316.1870162718253L307.42295543973194 316.1870162718253Q305.23732663065005 316.1870162718253 305.23732663065005 313.6720461353475L305.23732663065005 313.6720461353475Q305.23732663065005 312.20498022240207 306.584632060906 311.8756388950062L306.584632060906 311.8756388950062L307.3331350777149 311.8756388950062L366.37505304359945 310.2888124993714L377.0037958822856 310.2888124993714Q395.86607190586943 311.5462975676103 408.38104234691394 323.88162728462066Q420.8960127879584 336.18701688095865 420.8960127879584 353.4025862675629Q420.8960127879584 370.6181556541672 408.5906231916204 384.6001920081571L408.5906231916204 384.6001920081571Q403.2313415912688 390.827737108007 396.4948144399889 394.66007255406845Q389.75828728870897 398.49240800012996 383.2313409821355 398.61216848281936L383.2313409821355 398.61216848281936L351.6445136728007 397.35468341458045L350.80619029397474 397.35468341458045Q349.2193638983399 397.35468341458045 349.2193638983399 398.8217493275259L349.2193638983399 398.8217493275259L349.2193638983399 442.0852236990792Q349.2193638983399 447.86366698884376 352.39301668960957 450.6181580907005Q355.5367293602069 453.3427090718848 365.74631050948 454.92953546751966L365.74631050948 454.92953546751966Q367.12355606040836 455.1391163122261 370.1774483689886 455.6181582429838Q373.2313406775688 456.0672600530691 374.27924490110126 456.0672600530691Q375.3271491246337 456.0672600530691 375.3271491246337 456.9055834318951L375.3271491246337 456.9055834318951L375.3271491246337 459.45049368904523Q375.3271491246337 460.2888170678712 374.48882574580773 460.2888170678712L374.48882574580773 460.2888170678712ZM357.7522982899612 315.6181539790506Q356.49481322172227 315.6780342203953 355.0576874294492 315.70797434106765Q353.6505017578485 315.7678545824124 351.4349328280942 315.82773482375705Q349.2193638983399 315.8876150651018 349.2193638983399 317.5642618227537L349.2193638983399 317.5642618227537L349.2193638983399 385.43851538698306L349.42894474304643 388.6121681782527Q349.7582860704423 390.827737108007 351.4349328280942 390.91755747002406L351.4349328280942 390.91755747002406L362.18343614946974 391.5463000041435Q379.1295444500228 391.5463000041435 389.4888262026578 380.19899426932085Q399.8481079552927 368.8217484138259 399.8481079552927 351.60617902722163Q399.8481079552927 334.39060964061736 389.7882274093813 324.9295315081531Q379.7582869841423 315.43851325501646 363.0217595282957 315.43851325501646L363.0217595282957 315.43851325501646Q361.52475349467795 315.43851325501646 360.267268426439 315.49839349636113Q359.0097833582001 315.55827373770586 357.7522982899612 315.6181539790506Z " fill="#EE4E3" transform="matrix(0.6364565165168558,0,0,0.6364565165168558,0,54.780429250337875)"/><path d="M672.0617359925034 457.7892357621834L618.4484061783 457.7892357621834Q617.7087360714438 457.7892357621834 617.7087360714438 456.00382515942687L617.7087360714438 456.00382515942687L617.7087360714438 454.9070729320193Q617.7087360714438 454.1929086909167 618.6269472385757 454.1929086909167Q619.519652539954 454.1929086909167 621.2540514112031 453.6572855100897Q623.013956148206 453.12166232926273 623.9066614495844 452.9431212689871L623.9066614495844 452.9431212689871Q633.0632672551499 450.87714614294026 633.0632672551499 442.53672804149187L633.0632672551499 442.53672804149187L633.0632672551499 347.85895436388836Q633.0632672551499 339.59505385970095 630.0025633647101 337.3250318076248Q626.9673653400241 335.02950388979497 618.984029359127 335.02950388979497L618.984029359127 335.02950388979497L614.9285967042943 335.02950388979497Q613.0666685042768 335.02950388979497 613.0666685042768 332.8870111664871L613.0666685042768 332.8870111664871Q613.0666685042768 331.63722374455756 614.2144324631918 331.35665922126725L614.2144324631918 331.35665922126725L614.8520791070333 331.35665922126725L665.1496463732601 330.004848336323L674.2042287158112 330.004848336323Q690.27292414062 331.07609469797694 700.9343760256518 341.5845113884868Q711.5958279106837 352.06742221324305 711.5958279106837 366.73329502160027Q711.5958279106837 381.3991678299575 701.1129170859274 393.3104071369189L701.1129170859274 393.3104071369189Q696.5473671160214 398.6156272136812 690.8085473214469 401.88037803015027Q685.0697275268724 405.14512884661934 679.5094487925735 405.24715230963403L679.5094487925735 405.24715230963403L652.6007604224571 404.17590594798014L651.8865961813544 404.17590594798014Q650.5347852964103 404.17590594798014 650.5347852964103 405.42569336990965L650.5347852964103 405.42569336990965L650.5347852964103 442.28166938395526Q650.5347852964103 447.20430147441255 653.2384070662988 449.5508411237497Q655.9165229704336 451.87187490733317 664.6140231924333 453.2236857922774L664.6140231924333 453.2236857922774Q665.7872930171018 453.40222685255304 668.3888913239756 453.8103207046117Q670.9904896308494 454.1929086909167 671.8831949322278 454.1929086909167Q672.775900233606 454.1929086909167 672.775900233606 454.9070729320193L672.775900233606 454.9070729320193L672.775900233606 457.0750715210808Q672.775900233606 457.7892357621834 672.0617359925034 457.7892357621834L672.0617359925034 457.7892357621834ZM657.8039570362048 334.54489244047534Q656.7327106745508 334.5959041719827 655.5084291183749 334.6214100377364Q654.3096534279528 334.67242176924367 652.4222193621815 334.723433500751Q650.5347852964103 334.77444523225836 650.5347852964103 336.20277371446355L650.5347852964103 336.20277371446355L650.5347852964103 394.02457137802156L650.7133263566859 396.72819314791Q650.9938908799763 398.6156272136812 652.4222193621815 398.6921448109422L652.4222193621815 398.6921448109422L661.5788251677471 399.22776799176916Q676.0151451843215 399.22776799176916 684.8401747350894 389.5610448711302Q693.6652042858574 379.8688158847376 693.6652042858574 365.2029430763804Q693.6652042858574 350.5370702680232 685.095233392626 342.4772166898651Q676.5507683651483 334.39185724595336 662.2929894088497 334.39185724595336L662.2929894088497 334.39185724595336Q661.0176961211665 334.39185724595336 659.9464497595126 334.4428689774607Q658.8752033978587 334.49388070896805 657.8039570362048 334.54489244047534ZM778.8547959030977 393.4889481971946L778.8547959030977 393.4889481971946Q777.7835495414438 393.3104071369189 775.7175744153969 392.3411842382797L775.7175744153969 392.3411842382797Q768.2698616153268 388.9233982272886 764.0613937659721 388.9233982272886Q759.8529259166173 388.9233982272886 755.236364215204 394.17760657254354Q750.6198025137908 399.40630905204483 750.6198025137908 403.6402827671531L750.6198025137908 403.6402827671531L750.6198025137908 444.1691034497264Q750.6198025137908 450.87714614294026 758.3990915686586 453.12166232926273L758.3990915686586 453.12166232926273Q761.8168775796496 454.01436763064106 764.7755580070748 454.4224614826997Q767.7342384344997 454.8305553347583 768.5759320043708 455.1876374553096Q769.4431314399953 455.54471957586094 769.4431314399953 456.59046007176113Q769.4431314399953 457.6106947019078 768.550426138617 457.7892357621834L768.550426138617 457.7892357621834L723.6090906806598 457.7892357621834Q722.7163853792815 457.6106947019078 722.7163853792815 456.53944834025384L722.7163853792815 456.53944834025384Q722.7163853792815 454.9070729320193 726.9248532286363 454.3714497511923L726.9248532286363 454.3714497511923Q736.6170822150289 452.9431212689871 736.6170822150289 444.1691034497264L736.6170822150289 444.1691034497264L736.6170822150289 396.72819314791Q736.6170822150289 392.9533250163676 732.4851319629352 391.5249965341624L732.4851319629352 391.5249965341624Q730.6997213601785 390.88734989032076 728.6337462341316 390.5047619040158Q726.5677711080848 390.0966680519572 725.3689954176627 389.7395859314059Q724.1447138614867 389.38250381085453 723.8386434724428 389.05092755605693Q723.5325730833988 388.7448571670129 723.5325730833988 387.7246225368663Q723.5325730833988 386.67888204096613 724.884383968343 385.9647177998635L724.884383968343 385.9647177998635L747.7376396836266 375.20124245181694Q748.8088860452806 374.66561927099 749.0894505685708 374.66561927099L749.0894505685708 374.66561927099Q750.6198025137908 374.66561927099 750.6198025137908 376.8081119942978L750.6198025137908 376.8081119942978L750.6198025137908 391.34645547388675Q750.6198025137908 392.4177018355407 751.1554256946176 392.4177018355407L751.1554256946176 392.4177018355407Q751.8695899357203 392.4177018355407 754.8282703631455 388.209233986186L754.8282703631455 388.209233986186Q763.3472295248694 376.2724888134709 768.9075082591685 376.2724888134709L768.9075082591685 376.2724888134709Q772.044729746869 376.2724888134709 778.5487255140538 378.7975695230837Q785.0527212812381 381.29714436694286 785.0527212812381 383.00603737243836L785.0527212812381 383.00603737243836Q785.0527212812381 385.0720124984852 782.9867461551912 389.2804803478399Q780.9207710291446 393.4889481971946 778.8547959030977 393.4889481971946ZM791.760763974452 417.4899678713931Q791.760763974452 399.86541463561076 804.2841440595014 387.1634934902857Q816.7820182787971 374.48707821071434 834.279042185811 374.48707821071434Q851.7505602270714 374.48707821071434 864.6565282984259 386.8064113697344Q877.5880022355338 399.15125039450817 877.5880022355338 417.26041507961014Q877.5880022355338 435.3695797647121 865.3451866737748 447.79093638674686Q853.1023711120156 460.21229300878156 834.6361243063625 460.21229300878156Q816.1698775007092 460.21229300878156 803.9525678047037 447.66340705797853Q791.760763974452 435.11452110717545 791.760763974452 417.4899678713931ZM814.1039023746623 440.5727763784597L814.1039023746623 440.5727763784597Q822.877920193923 455.36617851558526 838.0284044516 455.36617851558526L838.0284044516 455.36617851558526Q849.7866085640392 455.36617851558526 856.0100398079335 445.954514052483Q862.2589769175813 436.5428495893807 862.2589769175813 422.82069381390903Q862.2589769175813 409.0985380384374 853.5104649640743 394.66221802186317Q844.7619530105674 380.2258980052889 829.9685508734417 380.2258980052889L829.9685508734417 380.2258980052889Q819.1285579281343 380.2258980052889 812.8796208184865 389.5865507368839Q806.6561895745922 398.9727093342325 806.6561895745922 413.3580176192994Q806.6561895745922 427.7433259043663 814.1039023746623 440.5727763784597ZM891.9222987890935 405.9613165507366L958.5436201376658 405.9613165507366L958.5436201376658 418.25514384400304L891.9222987890935 418.25514384400304L891.9222987890935 405.9613165507366ZM1001.9546036504032 457.0750715210808L1001.9546036504032 454.9070729320193Q1001.9546036504032 454.1929086909167 1002.7707913545205 454.1929086909167L1002.7707913545205 454.1929086909167L1005.2703661983796 454.1929086909167Q1014.0698898833939 454.1929086909167 1019.4006158259099 450.443546425128Q1024.7313417684259 446.6686782935856 1024.7313417684259 441.6440227401136L1024.7313417684259 441.6440227401136L1024.7313417684259 342.3751932268504Q1024.7313417684259 340.5132650268329 1023.9661657958159 340.28371223504996Q1023.2009898232059 340.05415944326694 1022.1297434615519 339.8756183829913L1022.1297434615519 339.8756183829913L987.6968246941046 339.8756183829913Q979.3564065926562 341.6610289857478 976.7548082857825 352.70506885708465L976.7548082857825 352.70506885708465Q975.3264798035773 358.62242971193484 975.0459152802869 360.2803109859231Q974.7908566227502 361.9381922599113 974.0766923816475 361.9381922599113L974.0766923816475 361.9381922599113L972.4443169734132 361.9381922599113Q971.9086937925861 361.9381922599113 971.9086937925861 361.58111013935996L971.9086937925861 361.58111013935996L971.9086937925861 358.62242971193484L975.2244563405625 330.64249498016466Q975.7600795213896 327.8623556130152 977.0353728090727 327.8623556130152Q978.2851602310022 327.8623556130152 979.7134887132077 329.5967544842644Q981.1418171954128 331.35665922126725 985.1717439844917 331.35665922126725L985.1717439844917 331.35665922126725L1081.8389751908812 331.35665922126725Q1085.6903609196845 331.35665922126725 1086.5065486238018 330.463953919889Q1087.322736327919 329.5712486185107 1088.0369005690218 328.70404918288614Q1088.7510648101243 327.8623556130152 1089.8733229032855 327.8623556130152Q1090.9955809964467 327.8623556130152 1091.301651385491 328.7550609143934Q1091.6332276402884 329.64776621577175 1091.811768700564 330.64249498016466L1091.811768700564 330.64249498016466L1095.1275312485404 358.62242971193484L1095.1275312485404 361.58111013935996Q1095.1275312485404 361.9381922599113 1094.5919080677136 361.9381922599113L1094.5919080677136 361.9381922599113L1092.959532659479 361.9381922599113Q1092.2453684183765 361.9381922599113 1091.9903097608399 360.58638137496706L1091.9903097608399 360.58638137496706Q1090.536475412881 351.60831662967706 1087.8583595087462 346.37961415017577Q1085.1547377388576 341.1254058049209 1079.339400347022 339.8756183829913L1079.339400347022 339.8756183829913L1044.80445811656 339.8756183829913Q1043.733211754906 340.05415944326694 1042.968035782296 340.28371223504996Q1042.202859809686 340.5132650268329 1042.202859809686 342.3751932268504L1042.202859809686 342.3751932268504L1042.202859809686 441.6440227401136Q1042.202859809686 446.6686782935856 1047.5590916179558 450.443546425128Q1052.8898175604718 454.1929086909167 1061.6638353797323 454.1929086909167L1061.6638353797323 454.1929086909167L1064.2654336866062 454.1929086909167Q1064.9795979277087 454.1929086909167 1064.9795979277087 454.9070729320193L1064.9795979277087 454.9070729320193L1064.9795979277087 457.0750715210808Q1064.9795979277087 457.7892357621834 1064.2654336866062 457.7892357621834L1064.2654336866062 457.7892357621834L1002.6687678915057 457.7892357621834Q1001.9546036504032 457.7892357621834 1001.9546036504032 457.0750715210808L1001.9546036504032 457.0750715210808ZM1168.4568952903267 457.96777682245903L1168.4568952903267 449.907923244301Q1168.0232955725144 448.3775712990811 1167.3091313314117 448.86218274840076Q1166.5949670903092 449.37230006347403 1161.4682880738224 451.9483925045942L1161.4682880738224 451.9483925045942Q1144.7109342736646 460.28881060604255 1133.4883533420523 460.28881060604255Q1122.2912782761935 460.28881060604255 1117.3686461857362 453.12166232926273L1117.3686461857362 453.12166232926273Q1115.557729717226 450.443546425128 1115.557729717226 446.4901372333099L1115.557729717226 446.4901372333099L1115.557729717226 391.78005519169903Q1115.3026710596894 389.2039627505789 1113.2366959336425 387.3165286848077L1113.2366959336425 387.3165286848077Q1110.456556566493 384.9699890354706 1107.4468644075607 384.7914479751949Q1104.437172248628 384.6129069149193 1104.437172248628 382.95502564093107Q1104.437172248628 381.29714436694286 1105.891006596587 380.9400622463915L1105.891006596587 380.9400622463915L1126.4232285282872 375.0227013915413Q1127.494474889941 374.66561927099 1128.5147095200875 374.66561927099Q1129.560450015988 374.66561927099 1129.560450015988 376.1959712162099L1129.560450015988 376.1959712162099L1129.560450015988 436.364308529105Q1129.560450015988 442.63875150450656 1135.1207287502868 446.03103164974397Q1140.6810074845857 449.448817660735 1149.3274959750781 449.448817660735Q1157.9739844655705 449.448817660735 1164.8860740848136 444.1691034497264L1164.8860740848136 444.1691034497264Q1167.0285668081215 442.4602104442309 1168.4568952903267 440.39423531818403L1168.4568952903267 440.39423531818403L1168.4568952903267 391.78005519169903Q1168.20183663279 389.2039627505789 1166.1358615067431 387.3165286848077L1166.1358615067431 387.3165286848077Q1163.3557221395936 384.9699890354706 1160.3460299806613 384.7914479751949Q1157.3363378217289 384.6129069149193 1157.3363378217289 382.95502564093107Q1157.3363378217289 381.29714436694286 1158.7901721696878 380.9400622463915L1158.7901721696878 380.9400622463915L1179.3223941013878 375.0227013915413Q1180.3936404630417 374.66561927099 1181.4138750931884 374.66561927099Q1182.4596155890886 374.66561927099 1182.4596155890886 376.45102987374656L1182.4596155890886 376.45102987374656L1182.4596155890886 440.1136707948937Q1182.8932153069009 444.0670799867118 1184.704131775411 445.7759729922073Q1186.4895423781675 447.48486599770285 1190.5194691672466 447.48486599770285L1190.5194691672466 447.48486599770285L1195.7226657809942 447.12778387715156Q1196.258288961821 447.12778387715156 1196.258288961821 448.1480185072981Q1196.258288961821 449.16825313744476 1194.9319839426307 449.8058997812863L1194.9319839426307 449.8058997812863L1171.0584935972004 459.67666982795464Q1169.9872472355464 460.21229300878156 1169.2220712629367 460.21229300878156Q1168.4568952903267 460.21229300878156 1168.4568952903267 457.96777682245903L1168.4568952903267 457.96777682245903ZM1229.7985024278903 312.431306832048L1229.7985024278903 382.72547284914805Q1229.7985024278903 385.5056122162975 1231.0993015813272 385.5056122162975Q1232.400100734764 385.5056122162975 1242.5259294389691 379.69027482446194L1242.5259294389691 379.69027482446194Q1254.3606511486694 374.66561927099 1260.5585765268102 374.66561927099Q1266.7565019049505 374.66561927099 1272.3932982365106 378.26194634225675Q1278.0556004338239 381.8327675477698 1281.9835037598884 387.67361080535903L1281.9835037598884 387.67361080535903Q1290.3239218613369 399.68687357533514 1290.3239218613369 416.80130949604415Q1290.3239218613369 433.94125128250687 1278.438188420129 447.0767721456442Q1266.5779608446749 460.21229300878156 1247.1169852746286 460.21229300878156L1247.1169852746286 460.21229300878156Q1234.466075860811 460.21229300878156 1223.8046239757791 457.15158911834175L1223.8046239757791 457.15158911834175Q1220.6674024880783 456.25888381696353 1218.4483921675094 455.72326063613656Q1216.2548877126944 455.1876374553096 1216.0253349209113 454.6010025429753Q1215.8212879948821 454.01436763064106 1215.8212879948821 453.2236857922774L1215.8212879948821 453.2236857922774L1215.8212879948821 332.35138798566015Q1215.8212879948821 328.5765198541178 1211.6893377427884 327.1481913719126L1211.6893377427884 327.1481913719126Q1209.9039271400318 326.51054472807095 1207.837952013985 326.1024508760123Q1205.771976887938 325.69435702395367 1204.5476953317623 325.3372749034024Q1203.34891964134 324.9801927828511 1203.042849252296 324.6741223938071Q1202.7112729974983 324.3680520047631 1202.7112729974983 323.32231150886287Q1202.7112729974983 322.30207687871626 1204.0630838824427 321.58791263761367L1204.0630838824427 321.58791263761367L1226.94184546348 310.82443728956713Q1228.0130918251339 310.2888141087402 1228.2681504826705 310.2888141087402L1228.2681504826705 310.2888141087402Q1229.7985024278903 310.2888141087402 1229.7985024278903 312.431306832048L1229.7985024278903 312.431306832048ZM1248.8003724143707 385.6076356793122L1248.8003724143707 385.6076356793122Q1240.8425422992273 385.6076356793122 1230.8697487895445 391.34645547388675L1230.8697487895445 391.34645547388675Q1229.7985024278903 391.98410211772836 1229.7985024278903 393.4889481971946L1229.7985024278903 393.4889481971946L1229.7985024278903 435.9052029455391Q1230.6912077292686 444.0670799867118 1236.8891331074094 448.63262995661773Q1243.061552619796 453.2236857922774 1250.4327478226053 453.2236857922774L1250.4327478226053 453.2236857922774Q1263.3387158939597 453.2236857922774 1270.378334841971 442.99583362505786Q1277.4179537899824 432.7679814578383 1277.4179537899824 419.6834723262083Q1277.4179537899824 406.5989631945783 1270.2508055132027 396.0905465040684Q1263.0581513706693 385.6076356793122 1248.8003724143707 385.6076356793122ZM1372.9119151717032 410.5268665206426L1320.905454899981 410.5268665206426Q1319.375102954761 410.5268665206426 1319.375102954761 417.08187401933446L1319.375102954761 417.08187401933446Q1319.375102954761 430.98257085508175 1327.6390034589483 440.39423531818403Q1335.8773980973822 449.8058997812863 1348.1202136591412 449.8058997812863Q1360.3630292209002 449.8058997812863 1371.6621277497736 439.2209654935155L1371.6621277497736 439.2209654935155Q1371.8406688100492 439.04242443323983 1372.095727467586 439.04242443323983L1372.095727467586 439.04242443323983L1372.5548330511522 439.04242443323983Q1373.090456231979 439.04242443323983 1373.5750676812984 439.90962386886446Q1374.0851849963717 440.7513174387354 1374.5187847141842 441.0318819620257L1374.5187847141842 441.0318819620257Q1364.1378973524427 453.6572855100897 1350.0586594564197 458.503400003286L1350.0586594564197 458.503400003286Q1345.2125449632233 460.21229300878156 1339.1166430480973 460.21229300878156Q1333.0207411329716 460.21229300878156 1326.7207922918162 456.8455187292978Q1320.4463493164149 453.4787444498141 1315.9828228095237 448.0204891785298L1315.9828228095237 448.0204891785298Q1306.4691348834065 436.6193671866417 1306.4691348834065 419.63246059470094Q1306.4691348834065 402.6455540027602 1316.8245163793945 388.6428337039983Q1327.1798978753825 374.66561927099 1345.2890625604844 374.66561927099L1345.2890625604844 374.66561927099Q1358.2970540948534 374.66561927099 1366.535448733287 386.2707881889075Q1374.7993492374744 397.9014629725786 1374.7993492374744 406.6754807918393L1374.7993492374744 406.6754807918393Q1374.7993492374744 410.5268665206426 1372.9119151717032 410.5268665206426L1372.9119151717032 410.5268665206426ZM1321.9001836643738 400.86014340000366L1321.9001836643738 401.9313897616576Q1321.9001836643738 403.6402827671531 1323.5070532068546 403.6402827671531L1323.5070532068546 403.6402827671531L1357.3023253304605 403.6402827671531Q1359.6488649797977 403.6402827671531 1359.6488649797977 400.86014340000366L1359.6488649797977 400.86014340000366Q1359.6488649797977 394.38165349857286 1353.859033453716 387.6225990738517Q1348.0692019276337 380.8635446491305 1341.1826181741442 380.8635446491305L1341.1826181741442 380.8635446491305Q1334.4490696151768 380.8635446491305 1328.9398026123852 386.95944656425644Q1323.40502974384 393.0553484793823 1321.9001836643738 400.86014340000366L1321.9001836643738 400.86014340000366Z " fill="#FCEDD" transform="matrix(0.6364565165168558,0,0,0.6364565165168558,0,54.780429250337875)"/></g></svg>